<svg width="24" height="16" viewBox="0 0 24 16" fill="none" xmlns="http://www.w3.org/2000/svg">
<path d="M11.9999 12.0008V6.00083M11.9999 6.00083L8.99992 8.00083M11.9999 6.00083L14.9999 8.00083M22.9999 11.0008C23 10.4696 22.8943 9.94368 22.6889 9.45376C22.4835 8.96383 22.1826 8.51973 21.8037 8.14737C21.4248 7.775 20.9756 7.48184 20.4822 7.28499C19.9887 7.08813 19.4611 6.99154 18.9299 7.00083C18.7148 5.51161 18.0256 4.13131 16.9646 3.06442C15.9035 1.99754 14.527 1.30084 13.039 1.07754C11.551 0.854242 10.0306 1.11623 8.70312 1.82468C7.37565 2.53313 6.31171 3.65035 5.66892 5.01083C4.37146 5.09292 3.15698 5.67713 2.28301 6.6396C1.40904 7.60206 0.944313 8.86708 0.987364 10.1664C1.03042 11.4658 1.57786 12.6973 2.51362 13.5998C3.44938 14.5023 4.69987 15.0048 5.99992 15.0008H18.9999C20.0608 15.0008 21.0782 14.5794 21.8283 13.8293C22.5785 13.0791 22.9999 12.0617 22.9999 11.0008Z" stroke="black" stroke-width="2" stroke-linecap="round" stroke-linejoin="round"/>
</svg>
